<?xml version="1.0" encoding="UTF-8"?>
<!DOCTYPE svg PUBLIC "-//W3C//DTD SVG 1.1//EN" "http://www.w3.org/Graphics/SVG/1.1/DTD/svg11.dtd">
<!-- Creator: CorelDRAW 2021 (64-Bit) -->
<svg xmlns="http://www.w3.org/2000/svg" xml:space="preserve" width="300mm" height="63.731mm" version="1.1" style="shape-rendering:geometricPrecision; text-rendering:geometricPrecision; image-rendering:optimizeQuality; fill-rule:evenodd; clip-rule:evenodd"
viewBox="0 0 8109.17 1722.69"
 xmlns:xlink="http://www.w3.org/1999/xlink"
 xmlns:xodm="http://www.corel.com/coreldraw/odm/2003">
 <defs>
  <style type="text/css">
   <![CDATA[
    .fil0 {fill:black;fill-rule:nonzero}
   ]]>
  </style>
 </defs>
 <g id="Слой_x0020_1">
  <metadata id="CorelCorpID_0Corel-Layer"/>
  <polygon class="fil0" points="7466.54,1436.61 6864.35,1436.61 6777.86,1720.09 6235.33,1720.09 6882.77,0 7464.54,0 8109.17,1720.09 7552.62,1720.09 "/>
  <polygon class="fil0" points="3330.47,1436.61 2728.28,1436.61 2641.8,1720.09 2099.26,1720.09 2746.7,0 3328.47,0 3973.1,1720.09 3416.56,1720.09 "/>
  <polygon class="fil0" points="-0,0 701.09,0 968.15,401.9 1236.01,0 1933.9,0 1933.9,1720.09 1499.07,1720.09 1481.35,1192.84 1168.28,1722.33 975.36,1722.33 774.29,1722.33 417.11,1192.84 434.83,1720.09 -0,1720.09 "/>
  <polygon class="fil0" points="4126.33,0.35 4827.42,0.35 5094.48,402.26 5362.34,0.35 6060.23,0.35 6060.23,1720.45 5625.4,1720.45 5607.68,1193.19 5294.61,1722.69 4900.62,1722.69 4543.44,1193.19 4561.16,1720.45 4126.33,1720.45 "/>
 </g>
</svg>
