<?xml version="1.0" encoding="UTF-8"?>
<!DOCTYPE svg PUBLIC "-//W3C//DTD SVG 1.1//EN" "http://www.w3.org/Graphics/SVG/1.1/DTD/svg11.dtd">
<!-- Creator: CorelDRAW 2021 (64-Bit) -->
<svg xmlns="http://www.w3.org/2000/svg" xml:space="preserve" width="299.736mm" height="77.7932mm" version="1.1" style="shape-rendering:geometricPrecision; text-rendering:geometricPrecision; image-rendering:optimizeQuality; fill-rule:evenodd; clip-rule:evenodd"
viewBox="0 0 8085.14 2098.41"
 xmlns:xlink="http://www.w3.org/1999/xlink"
 xmlns:xodm="http://www.corel.com/coreldraw/odm/2003">
 <defs>
  <style type="text/css">
   <![CDATA[
    .str0 {stroke:black;stroke-width:2.06;stroke-miterlimit:22.9256}
    .fil2 {fill:none}
    .fil1 {fill:none;fill-rule:nonzero}
    .fil0 {fill:black;fill-rule:nonzero}
   ]]>
  </style>
   <clipPath id="id0" style="clip-rule:nonzero">
    <path d="M7296.28 1752.58l-710.65 0c-7.23,0 -13.37,4.54 -15.48,11.46l-98.52 322.91c-2.11,6.92 -8.25,11.46 -15.48,11.46l-626.49 0c-5.48,0 -10.19,-2.47 -13.31,-6.98 -3.12,-4.5 -3.77,-9.78 -1.84,-14.91l777.65 -2066.04c2.42,-6.43 8.28,-10.48 15.15,-10.48l687.31 0c6.88,0 12.74,4.06 15.15,10.5l774.28 2066.04c1.92,5.13 1.27,10.4 -1.85,14.9 -3.12,4.5 -7.83,6.96 -13.3,6.96l-643.6 0c-7.24,0 -13.38,-4.55 -15.49,-11.48l-98.04 -322.86c-2.1,-6.93 -8.25,-11.48 -15.49,-11.48z"/>
   </clipPath>
   <clipPath id="id1">
    <path d="M7296.28 1752.58l-710.65 0c-7.23,0 -13.37,4.54 -15.48,11.46l-98.52 322.91c-2.11,6.92 -8.25,11.46 -15.48,11.46l-626.49 0c-5.48,0 -10.19,-2.47 -13.31,-6.98 -3.12,-4.5 -3.77,-9.78 -1.84,-14.91l777.65 -2066.04c2.42,-6.43 8.28,-10.48 15.15,-10.48l687.31 0c6.88,0 12.74,4.06 15.15,10.5l774.28 2066.04c1.92,5.13 1.27,10.4 -1.85,14.9 -3.12,4.5 -7.83,6.96 -13.3,6.96l-643.6 0c-7.24,0 -13.38,-4.55 -15.49,-11.48l-98.04 -322.86c-2.1,-6.93 -8.25,-11.48 -15.49,-11.48z"/>
   </clipPath>
   <clipPath id="id2" style="clip-rule:nonzero">
    <path d="M4146.99 0l1078.51 0c234.95,0 410.79,55.69 528.02,167.54 116.74,111.86 175.36,271.09 175.36,477.71 0,211.99 -63.99,378.06 -191.47,497.25 -127.49,119.67 -322.38,179.26 -584.2,179.26l-355.6 0 0 776.65 -650.62 0 0 -2098.41z"/>
   </clipPath>
   <clipPath id="id3">
    <path d="M4146.99 0l1078.51 0c234.95,0 410.79,55.69 528.02,167.54 116.74,111.86 175.36,271.09 175.36,477.71 0,211.99 -63.99,378.06 -191.47,497.25 -127.49,119.67 -322.38,179.26 -584.2,179.26l-355.6 0 0 776.65 -650.62 0 0 -2098.41z"/>
   </clipPath>
   <clipPath id="id4" style="clip-rule:nonzero">
    <path d="M3161.29 1752.58l-734.64 0 -105.51 345.83 -661.86 0 789.83 -2098.41 709.73 0 786.41 2098.41 -678.95 0 -105.02 -345.83z"/>
   </clipPath>
   <clipPath id="id5">
    <path d="M3161.29 1752.58l-734.64 0 -105.51 345.83 -661.86 0 789.83 -2098.41 709.73 0 786.41 2098.41 -678.95 0 -105.02 -345.83z"/>
   </clipPath>
   <clipPath id="id6" style="clip-rule:nonzero">
    <path d="M-0 0l1078.51 0c234.95,0 410.79,55.69 528.02,167.54 116.74,111.86 175.36,271.09 175.36,477.71 0,211.99 -63.99,378.06 -191.47,497.25 -127.49,119.67 -322.38,179.26 -584.2,179.26l-355.6 0 0 776.65 -650.62 0 0 -2098.41z"/>
   </clipPath>
   <clipPath id="id7">
    <path d="M-0 0l1078.51 0c234.95,0 410.79,55.69 528.02,167.54 116.74,111.86 175.36,271.09 175.36,477.71 0,211.99 -63.99,378.06 -191.47,497.25 -127.49,119.67 -322.38,179.26 -584.2,179.26l-355.6 0 0 776.65 -650.62 0 0 -2098.41z"/>
   </clipPath>
 </defs>
 <g id="Слой_x0020_1">
  <metadata id="CorelCorpID_0Corel-Layer"/>
  <path class="fil0" d="M7296.28 1752.58l-710.65 0c-7.23,0 -13.37,4.54 -15.48,11.46l-98.52 322.91c-2.11,6.92 -8.25,11.46 -15.48,11.46l-626.49 0c-5.48,0 -10.19,-2.47 -13.31,-6.98 -3.12,-4.5 -3.77,-9.78 -1.84,-14.91l777.65 -2066.04c2.42,-6.43 8.28,-10.48 15.15,-10.48l687.31 0c6.88,0 12.74,4.06 15.15,10.5l774.28 2066.04c1.92,5.13 1.27,10.4 -1.85,14.9 -3.12,4.5 -7.83,6.96 -13.3,6.96l-643.6 0c-7.24,0 -13.38,-4.55 -15.49,-11.48l-98.04 -322.86c-2.1,-6.93 -8.25,-11.48 -15.49,-11.48z"/>
  <g style="clip-path:url(#id0)">
  </g>
  <path id="_1" class="fil1" d="M7296.28 1752.58l-710.65 0c-7.23,0 -13.37,4.54 -15.48,11.46l-98.52 322.91c-2.11,6.92 -8.25,11.46 -15.48,11.46l-626.49 0c-5.48,0 -10.19,-2.47 -13.31,-6.98 -3.12,-4.5 -3.77,-9.78 -1.84,-14.91l777.65 -2066.04c2.42,-6.43 8.28,-10.48 15.15,-10.48l687.31 0c6.88,0 12.74,4.06 15.15,10.5l774.28 2066.04c1.92,5.13 1.27,10.4 -1.85,14.9 -3.12,4.5 -7.83,6.96 -13.3,6.96l-643.6 0c-7.24,0 -13.38,-4.55 -15.49,-11.48l-98.04 -322.86c-2.1,-6.93 -8.25,-11.48 -15.49,-11.48z"/>
  <g style="clip-path:url(#id1)">
   <path id="_2" class="fil2 str0" d="M5813.42 0l2271.71 2098.41m0 -2098.41l-2271.71 2098.41"/>
  </g>
  <path class="fil0" d="M4146.99 0l1078.51 0c234.95,0 410.79,55.69 528.02,167.54 116.74,111.86 175.36,271.09 175.36,477.71 0,211.99 -63.99,378.06 -191.47,497.25 -127.49,119.67 -322.38,179.26 -584.2,179.26l-355.6 0 0 776.65 -650.62 0 0 -2098.41z"/>
  <g style="clip-path:url(#id2)">
  </g>
  <path id="_1_0" class="fil1" d="M4146.99 0l1078.51 0c234.95,0 410.79,55.69 528.02,167.54 116.74,111.86 175.36,271.09 175.36,477.71 0,211.99 -63.99,378.06 -191.47,497.25 -127.49,119.67 -322.38,179.26 -584.2,179.26l-355.6 0 0 776.65 -650.62 0 0 -2098.41z"/>
  <g style="clip-path:url(#id3)">
   <path id="_2_1" class="fil2 str0" d="M4146.99 0l1781.89 2098.41m0 -2098.41l-1781.89 2098.41"/>
  </g>
  <polygon class="fil0" points="3161.29,1752.58 2426.65,1752.58 2321.14,2098.41 1659.28,2098.41 2449.12,0 3158.84,0 3945.26,2098.41 3266.3,2098.41 "/>
  <g style="clip-path:url(#id4)">
  </g>
  <polygon id="_1_2" class="fil1" points="3161.29,1752.58 2426.65,1752.58 2321.14,2098.41 1659.28,2098.41 2449.12,0 3158.84,0 3945.26,2098.41 3266.3,2098.41 "/>
  <g style="clip-path:url(#id5)">
   <path id="_2_3" class="fil2 str0" d="M1659.28 0l2285.97 2098.41m0 -2098.41l-2285.97 2098.41"/>
  </g>
  <path class="fil0" d="M-0 0l1078.51 0c234.95,0 410.79,55.69 528.02,167.54 116.74,111.86 175.36,271.09 175.36,477.71 0,211.99 -63.99,378.06 -191.47,497.25 -127.49,119.67 -322.38,179.26 -584.2,179.26l-355.6 0 0 776.65 -650.62 0 0 -2098.41z"/>
  <g style="clip-path:url(#id6)">
  </g>
  <path id="_1_4" class="fil1" d="M-0 0l1078.51 0c234.95,0 410.79,55.69 528.02,167.54 116.74,111.86 175.36,271.09 175.36,477.71 0,211.99 -63.99,378.06 -191.47,497.25 -127.49,119.67 -322.38,179.26 -584.2,179.26l-355.6 0 0 776.65 -650.62 0 0 -2098.41z"/>
  <g style="clip-path:url(#id7)">
   <path id="_2_5" class="fil2 str0" d="M-0 0l1781.89 2098.41m0 -2098.41l-1781.89 2098.41"/>
  </g>
 </g>
</svg>
